<svg xmlns="http://www.w3.org/2000/svg" viewBox="0 0 200 300" width="200" height="300" role="img" aria-label="card back">
  <title>Card back</title>
  <defs>
    <linearGradient id="rback-base" x1="0" y1="0" x2="1" y2="1">
      <stop offset="0" stop-color="#9a6238"/>
      <stop offset="0.55" stop-color="#7d4a28"/>
      <stop offset="1" stop-color="#5e3419"/>
    </linearGradient>
    <clipPath id="rback-clip"><rect x="8" y="8" width="184" height="284" rx="14"/></clipPath>
    <filter id="rback-grain" x="0" y="0" width="100%" height="100%">
      <feTurbulence type="fractalNoise" baseFrequency="0.008 0.16" numOctaves="5" seed="501"/>
      <feColorMatrix values="0 0 0 0 0.20  0 0 0 0 0.10  0 0 0 0 0.04  2.6 0 0 0 -0.95"/>
    </filter>
    <filter id="rback-fine" x="0" y="0" width="100%" height="100%">
      <feTurbulence type="fractalNoise" baseFrequency="0.06 0.9" numOctaves="2" seed="541"/>
      <feColorMatrix values="0 0 0 0 1  0 0 0 0 0.85  0 0 0 0 0.65  1.2 0 0 0 -0.55"/>
    </filter>
    <filter id="rback-burn" x="-20%" y="-20%" width="140%" height="140%">
      <feGaussianBlur stdDeviation="1.6"/>
    </filter>
    <radialGradient id="rback-vig" cx="0.5" cy="0.5" r="0.7">
      <stop offset="0.6" stop-color="#000" stop-opacity="0"/>
      <stop offset="1" stop-color="#1a0a02" stop-opacity="0.35"/>
    </radialGradient>
  </defs>

  <!-- tile body -->
  <rect x="10" y="12" width="184" height="284" rx="14" fill="#2a1508" opacity="0.45"/>
  <g clip-path="url(#rback-clip)">
    <rect x="8" y="8" width="184" height="284" fill="url(#rback-base)"/>
    <rect x="8" y="8" width="184" height="284" filter="url(#rback-grain)" transform="rotate(-4 100 150)"/>
    <rect x="8" y="8" width="184" height="284" filter="url(#rback-fine)" opacity="0.35" transform="rotate(-4 100 150)"/>
    <rect x="8" y="8" width="184" height="284" fill="url(#rback-vig)"/>
  </g>
  <rect x="8.75" y="8.75" width="182.5" height="282.5" rx="13.5" fill="none" stroke="#3b1d0b" stroke-width="1.5"/>
  <rect x="11" y="11" width="178" height="278" rx="12" fill="none" stroke="#e0a878" stroke-opacity="0.25" stroke-width="1"/>

  <!-- engraved border -->
  <g><path d="M60.8,26.8 H140.8 M174.8,60.8 V240.8 M140.8,274.8 H60.8 M26.8,240.8 V60.8" fill="none" stroke="#e8b88c" stroke-opacity="0.22" stroke-width="1.6" stroke-linecap="round"/><path d="M0,22 C0,8 8,0 22,0 M6,20 C4,10 10,5 17,7 C22,9 21,16 15,16 C11,16 11,11 14,11 M20,6 C26,2 32,4 34,8 M6,20 C2,26 4,32 8,34" transform="translate(26.8,26.8) scale(1.35,1.35)" fill="none" stroke="#e8b88c" stroke-opacity="0.22" stroke-width="1.6" stroke-linecap="round"/><path d="M0,22 C0,8 8,0 22,0 M6,20 C4,10 10,5 17,7 C22,9 21,16 15,16 C11,16 11,11 14,11 M20,6 C26,2 32,4 34,8 M6,20 C2,26 4,32 8,34" transform="translate(174.8,26.8) scale(-1.35,1.35)" fill="none" stroke="#e8b88c" stroke-opacity="0.22" stroke-width="1.6" stroke-linecap="round"/><path d="M0,22 C0,8 8,0 22,0 M6,20 C4,10 10,5 17,7 C22,9 21,16 15,16 C11,16 11,11 14,11 M20,6 C26,2 32,4 34,8 M6,20 C2,26 4,32 8,34" transform="translate(26.8,274.8) scale(1.35,-1.35)" fill="none" stroke="#e8b88c" stroke-opacity="0.22" stroke-width="1.6" stroke-linecap="round"/><path d="M0,22 C0,8 8,0 22,0 M6,20 C4,10 10,5 17,7 C22,9 21,16 15,16 C11,16 11,11 14,11 M20,6 C26,2 32,4 34,8 M6,20 C2,26 4,32 8,34" transform="translate(174.8,274.8) scale(-1.35,-1.35)" fill="none" stroke="#e8b88c" stroke-opacity="0.22" stroke-width="1.6" stroke-linecap="round"/></g>
  <g><path d="M60,26 H140 M174,60 V240 M140,274 H60 M26,240 V60" fill="none" stroke="#2e1507" stroke-width="1.8" stroke-linecap="round"/><path d="M0,22 C0,8 8,0 22,0 M6,20 C4,10 10,5 17,7 C22,9 21,16 15,16 C11,16 11,11 14,11 M20,6 C26,2 32,4 34,8 M6,20 C2,26 4,32 8,34" transform="translate(26,26) scale(1.35,1.35)" fill="none" stroke="#2e1507" stroke-width="1.8" stroke-linecap="round"/><path d="M0,22 C0,8 8,0 22,0 M6,20 C4,10 10,5 17,7 C22,9 21,16 15,16 C11,16 11,11 14,11 M20,6 C26,2 32,4 34,8 M6,20 C2,26 4,32 8,34" transform="translate(174,26) scale(-1.35,1.35)" fill="none" stroke="#2e1507" stroke-width="1.8" stroke-linecap="round"/><path d="M0,22 C0,8 8,0 22,0 M6,20 C4,10 10,5 17,7 C22,9 21,16 15,16 C11,16 11,11 14,11 M20,6 C26,2 32,4 34,8 M6,20 C2,26 4,32 8,34" transform="translate(26,274) scale(1.35,-1.35)" fill="none" stroke="#2e1507" stroke-width="1.8" stroke-linecap="round"/><path d="M0,22 C0,8 8,0 22,0 M6,20 C4,10 10,5 17,7 C22,9 21,16 15,16 C11,16 11,11 14,11 M20,6 C26,2 32,4 34,8 M6,20 C2,26 4,32 8,34" transform="translate(174,274) scale(-1.35,-1.35)" fill="none" stroke="#2e1507" stroke-width="1.8" stroke-linecap="round"/></g>

    <!-- carved emblem -->
  <g><circle cx="100.8" cy="150.8" r="70" fill="none" stroke="#e8b88c" stroke-opacity="0.22" stroke-width="1.8"/><circle cx="100" cy="150" r="70" fill="none" stroke="#2e1507" stroke-width="1.8"/><circle cx="100.8" cy="150.8" r="64" fill="none" stroke="#e8b88c" stroke-opacity="0.22" stroke-width="1.2"/><circle cx="100" cy="150" r="64" fill="none" stroke="#2e1507" stroke-width="1.2"/><circle cx="100.8" cy="150.8" r="38" fill="none" stroke="#e8b88c" stroke-opacity="0.22" stroke-width="1.8"/><circle cx="100" cy="150" r="38" fill="none" stroke="#2e1507" stroke-width="1.8"/><circle cx="100.8" cy="150.8" r="33" fill="none" stroke="#e8b88c" stroke-opacity="0.22" stroke-width="1.2"/><circle cx="100" cy="150" r="33" fill="none" stroke="#2e1507" stroke-width="1.2"/><g transform="translate(100.00,99.00) rotate(0.0) scale(0.15) translate(-100,-150)"><g><polyline points="90,74 90,230" fill="none" stroke="#f0c49a" stroke-width="22" stroke-linecap="round" stroke-linejoin="round" stroke-opacity="0.25"/><polyline points="90,114 130,82" fill="none" stroke="#f0c49a" stroke-width="22" stroke-linecap="round" stroke-linejoin="round" stroke-opacity="0.25"/><polyline points="90,154 130,122" fill="none" stroke="#f0c49a" stroke-width="22" stroke-linecap="round" stroke-linejoin="round" stroke-opacity="0.25"/></g><g><polyline points="88,72 88,228" fill="none" stroke="#2a1105" stroke-width="20" stroke-linecap="round" stroke-linejoin="round" /><polyline points="88,112 128,80" fill="none" stroke="#2a1105" stroke-width="20" stroke-linecap="round" stroke-linejoin="round" /><polyline points="88,152 128,120" fill="none" stroke="#2a1105" stroke-width="20" stroke-linecap="round" stroke-linejoin="round" /></g></g><g transform="translate(119.52,102.88) rotate(22.5) scale(0.15) translate(-100,-150)"><g><polyline points="82,230 82,74 124,124 124,230" fill="none" stroke="#f0c49a" stroke-width="22" stroke-linecap="round" stroke-linejoin="round" stroke-opacity="0.25"/></g><g><polyline points="80,228 80,72 122,122 122,228" fill="none" stroke="#2a1105" stroke-width="20" stroke-linecap="round" stroke-linejoin="round" /></g></g><g transform="translate(136.06,113.94) rotate(45.0) scale(0.15) translate(-100,-150)"><g><polyline points="86,74 86,230" fill="none" stroke="#f0c49a" stroke-width="22" stroke-linecap="round" stroke-linejoin="round" stroke-opacity="0.25"/><polyline points="86,114 124,147 86,180" fill="none" stroke="#f0c49a" stroke-width="22" stroke-linecap="round" stroke-linejoin="round" stroke-opacity="0.25"/></g><g><polyline points="84,72 84,228" fill="none" stroke="#2a1105" stroke-width="20" stroke-linecap="round" stroke-linejoin="round" /><polyline points="84,112 122,145 84,178" fill="none" stroke="#2a1105" stroke-width="20" stroke-linecap="round" stroke-linejoin="round" /></g></g><g transform="translate(147.12,130.48) rotate(67.5) scale(0.15) translate(-100,-150)"><g><polyline points="114,74 114,230" fill="none" stroke="#f0c49a" stroke-width="22" stroke-linecap="round" stroke-linejoin="round" stroke-opacity="0.25"/><polyline points="114,102 74,134" fill="none" stroke="#f0c49a" stroke-width="22" stroke-linecap="round" stroke-linejoin="round" stroke-opacity="0.25"/><polyline points="114,142 74,174" fill="none" stroke="#f0c49a" stroke-width="22" stroke-linecap="round" stroke-linejoin="round" stroke-opacity="0.25"/></g><g><polyline points="112,72 112,228" fill="none" stroke="#2a1105" stroke-width="20" stroke-linecap="round" stroke-linejoin="round" /><polyline points="112,100 72,132" fill="none" stroke="#2a1105" stroke-width="20" stroke-linecap="round" stroke-linejoin="round" /><polyline points="112,140 72,172" fill="none" stroke="#2a1105" stroke-width="20" stroke-linecap="round" stroke-linejoin="round" /></g></g><g transform="translate(151.00,150.00) rotate(90.0) scale(0.15) translate(-100,-150)"><g><polyline points="84,230 84,74 124,108 84,142 126,230" fill="none" stroke="#f0c49a" stroke-width="22" stroke-linecap="round" stroke-linejoin="round" stroke-opacity="0.25"/></g><g><polyline points="82,228 82,72 122,106 82,140 124,228" fill="none" stroke="#2a1105" stroke-width="20" stroke-linecap="round" stroke-linejoin="round" /></g></g><g transform="translate(147.12,169.52) rotate(112.5) scale(0.15) translate(-100,-150)"><g><polyline points="90,74 90,230" fill="none" stroke="#f0c49a" stroke-width="22" stroke-linecap="round" stroke-linejoin="round" stroke-opacity="0.25"/><polyline points="90,124 130,88" fill="none" stroke="#f0c49a" stroke-width="22" stroke-linecap="round" stroke-linejoin="round" stroke-opacity="0.25"/></g><g><polyline points="88,72 88,228" fill="none" stroke="#2a1105" stroke-width="20" stroke-linecap="round" stroke-linejoin="round" /><polyline points="88,122 128,86" fill="none" stroke="#2a1105" stroke-width="20" stroke-linecap="round" stroke-linejoin="round" /></g></g><g transform="translate(136.06,186.06) rotate(135.0) scale(0.15) translate(-100,-150)"><g><polyline points="102,74 102,230" fill="none" stroke="#f0c49a" stroke-width="22" stroke-linecap="round" stroke-linejoin="round" stroke-opacity="0.25"/><polyline points="68,114 136,190" fill="none" stroke="#f0c49a" stroke-width="22" stroke-linecap="round" stroke-linejoin="round" stroke-opacity="0.25"/><polyline points="136,114 68,190" fill="none" stroke="#f0c49a" stroke-width="22" stroke-linecap="round" stroke-linejoin="round" stroke-opacity="0.25"/></g><g><polyline points="100,72 100,228" fill="none" stroke="#2a1105" stroke-width="20" stroke-linecap="round" stroke-linejoin="round" /><polyline points="66,112 134,188" fill="none" stroke="#2a1105" stroke-width="20" stroke-linecap="round" stroke-linejoin="round" /><polyline points="134,112 66,188" fill="none" stroke="#2a1105" stroke-width="20" stroke-linecap="round" stroke-linejoin="round" /></g></g><g transform="translate(119.52,197.12) rotate(157.5) scale(0.15) translate(-100,-150)"><g><polyline points="102,74 102,230" fill="none" stroke="#f0c49a" stroke-width="22" stroke-linecap="round" stroke-linejoin="round" stroke-opacity="0.25"/><polyline points="72,130 132,174" fill="none" stroke="#f0c49a" stroke-width="22" stroke-linecap="round" stroke-linejoin="round" stroke-opacity="0.25"/></g><g><polyline points="100,72 100,228" fill="none" stroke="#2a1105" stroke-width="20" stroke-linecap="round" stroke-linejoin="round" /><polyline points="70,128 130,172" fill="none" stroke="#2a1105" stroke-width="20" stroke-linecap="round" stroke-linejoin="round" /></g></g><g transform="translate(100.00,201.00) rotate(180.0) scale(0.15) translate(-100,-150)"><g><polyline points="102,74 102,230" fill="none" stroke="#f0c49a" stroke-width="22" stroke-linecap="round" stroke-linejoin="round" stroke-opacity="0.25"/></g><g><polyline points="100,72 100,228" fill="none" stroke="#2a1105" stroke-width="20" stroke-linecap="round" stroke-linejoin="round" /></g></g><g transform="translate(80.48,197.12) rotate(202.5) scale(0.15) translate(-100,-150)"><g><polyline points="102,74 102,230" fill="none" stroke="#f0c49a" stroke-width="22" stroke-linecap="round" stroke-linejoin="round" stroke-opacity="0.25"/><polyline points="72,174 132,130" fill="none" stroke="#f0c49a" stroke-width="22" stroke-linecap="round" stroke-linejoin="round" stroke-opacity="0.25"/></g><g><polyline points="100,72 100,228" fill="none" stroke="#2a1105" stroke-width="20" stroke-linecap="round" stroke-linejoin="round" /><polyline points="70,172 130,128" fill="none" stroke="#2a1105" stroke-width="20" stroke-linecap="round" stroke-linejoin="round" /></g></g><g transform="translate(63.94,186.06) rotate(225.0) scale(0.15) translate(-100,-150)"><g><polyline points="82,74 82,134 122,170 122,230" fill="none" stroke="#f0c49a" stroke-width="22" stroke-linecap="round" stroke-linejoin="round" stroke-opacity="0.25"/></g><g><polyline points="80,72 80,132 120,168 120,228" fill="none" stroke="#2a1105" stroke-width="20" stroke-linecap="round" stroke-linejoin="round" /></g></g><g transform="translate(52.88,169.52) rotate(247.5) scale(0.15) translate(-100,-150)"><g><polyline points="102,74 102,230" fill="none" stroke="#f0c49a" stroke-width="22" stroke-linecap="round" stroke-linejoin="round" stroke-opacity="0.25"/><polyline points="70,114 102,76 134,114" fill="none" stroke="#f0c49a" stroke-width="22" stroke-linecap="round" stroke-linejoin="round" stroke-opacity="0.25"/></g><g><polyline points="100,72 100,228" fill="none" stroke="#2a1105" stroke-width="20" stroke-linecap="round" stroke-linejoin="round" /><polyline points="68,112 100,74 132,112" fill="none" stroke="#2a1105" stroke-width="20" stroke-linecap="round" stroke-linejoin="round" /></g></g><g transform="translate(49.00,150.00) rotate(270.0) scale(0.15) translate(-100,-150)"><g><polyline points="86,74 86,230" fill="none" stroke="#f0c49a" stroke-width="22" stroke-linecap="round" stroke-linejoin="round" stroke-opacity="0.25"/><polyline points="86,78 124,116 86,152 124,192 86,226" fill="none" stroke="#f0c49a" stroke-width="22" stroke-linecap="round" stroke-linejoin="round" stroke-opacity="0.25"/></g><g><polyline points="84,72 84,228" fill="none" stroke="#2a1105" stroke-width="20" stroke-linecap="round" stroke-linejoin="round" /><polyline points="84,76 122,114 84,150 122,190 84,224" fill="none" stroke="#2a1105" stroke-width="20" stroke-linecap="round" stroke-linejoin="round" /></g></g><g transform="translate(52.88,130.48) rotate(292.5) scale(0.15) translate(-100,-150)"><g><polyline points="102,230 102,74" fill="none" stroke="#f0c49a" stroke-width="22" stroke-linecap="round" stroke-linejoin="round" stroke-opacity="0.25"/><polyline points="70,84 102,122 134,84" fill="none" stroke="#f0c49a" stroke-width="22" stroke-linecap="round" stroke-linejoin="round" stroke-opacity="0.25"/></g><g><polyline points="100,228 100,72" fill="none" stroke="#2a1105" stroke-width="20" stroke-linecap="round" stroke-linejoin="round" /><polyline points="68,82 100,120 132,82" fill="none" stroke="#2a1105" stroke-width="20" stroke-linecap="round" stroke-linejoin="round" /></g></g><g transform="translate(63.94,113.94) rotate(315.0) scale(0.15) translate(-100,-150)"><g><polyline points="90,74 90,230" fill="none" stroke="#f0c49a" stroke-width="22" stroke-linecap="round" stroke-linejoin="round" stroke-opacity="0.25"/><polyline points="90,78 128,118" fill="none" stroke="#f0c49a" stroke-width="22" stroke-linecap="round" stroke-linejoin="round" stroke-opacity="0.25"/></g><g><polyline points="88,72 88,228" fill="none" stroke="#2a1105" stroke-width="20" stroke-linecap="round" stroke-linejoin="round" /><polyline points="88,76 126,116" fill="none" stroke="#2a1105" stroke-width="20" stroke-linecap="round" stroke-linejoin="round" /></g></g><g transform="translate(80.48,102.88) rotate(337.5) scale(0.15) translate(-100,-150)"><g><polyline points="102,74 102,230" fill="none" stroke="#f0c49a" stroke-width="22" stroke-linecap="round" stroke-linejoin="round" stroke-opacity="0.25"/><polyline points="70,220 102,182 134,220" fill="none" stroke="#f0c49a" stroke-width="22" stroke-linecap="round" stroke-linejoin="round" stroke-opacity="0.25"/></g><g><polyline points="100,72 100,228" fill="none" stroke="#2a1105" stroke-width="20" stroke-linecap="round" stroke-linejoin="round" /><polyline points="68,218 100,180 132,218" fill="none" stroke="#2a1105" stroke-width="20" stroke-linecap="round" stroke-linejoin="round" /></g></g><g transform="translate(100,150) scale(0.3) translate(-100,-150)"><g><polyline points="103,85 103,221" fill="none" stroke="#f0c49a" stroke-width="24" stroke-linecap="round" stroke-linejoin="round" stroke-opacity="0.25"/><polyline points="75,121 131,185" fill="none" stroke="#f0c49a" stroke-width="24" stroke-linecap="round" stroke-linejoin="round" stroke-opacity="0.25"/><polyline points="131,121 75,185" fill="none" stroke="#f0c49a" stroke-width="24" stroke-linecap="round" stroke-linejoin="round" stroke-opacity="0.25"/></g><g filter="url(#rback-burn)"><polyline points="100,82 100,218" fill="none" stroke="#4a200a" stroke-width="30" stroke-linecap="round" stroke-linejoin="round" stroke-opacity="0.75"/><polyline points="72,118 128,182" fill="none" stroke="#4a200a" stroke-width="30" stroke-linecap="round" stroke-linejoin="round" stroke-opacity="0.75"/><polyline points="128,118 72,182" fill="none" stroke="#4a200a" stroke-width="30" stroke-linecap="round" stroke-linejoin="round" stroke-opacity="0.75"/></g><g><polyline points="100,82 100,218" fill="none" stroke="#3d1a09" stroke-width="22" stroke-linecap="round" stroke-linejoin="round" /><polyline points="72,118 128,182" fill="none" stroke="#3d1a09" stroke-width="22" stroke-linecap="round" stroke-linejoin="round" /><polyline points="128,118 72,182" fill="none" stroke="#3d1a09" stroke-width="22" stroke-linecap="round" stroke-linejoin="round" /></g><g><polyline points="102,84 102,220" fill="none" stroke="#1f0b03" stroke-width="11" stroke-linecap="round" stroke-linejoin="round" /><polyline points="74,120 130,184" fill="none" stroke="#1f0b03" stroke-width="11" stroke-linecap="round" stroke-linejoin="round" /><polyline points="130,120 74,184" fill="none" stroke="#1f0b03" stroke-width="11" stroke-linecap="round" stroke-linejoin="round" /></g></g><path d="M100,49 L106,58 L100,67 L94,58 Z" fill="#3d1a09" stroke="#1f0b03" stroke-width="1"/><path d="M100,233 L106,242 L100,251 L94,242 Z" fill="#3d1a09" stroke="#1f0b03" stroke-width="1"/></g>
</svg>
